<svg id="a60e1e79-db9c-448a-b593-8aec0de881df" data-name="Ebene 1" xmlns="http://www.w3.org/2000/svg" viewBox="0 0 186.7 187.44"><defs><style>.addb196e-005e-4e33-bc05-51339b7cb085,.b0b7d355-f7d7-42bc-aada-dff09492d7c8,.b8881740-a956-43c7-bb4d-af52d92d8313{fill:#1d1d1b;}.addb196e-005e-4e33-bc05-51339b7cb085{fill-rule:evenodd;}.e0c45992-9e5d-4812-b21c-6e41d1f6a741,.fc12cbda-d578-4251-ad07-165dd82f7d30{fill:#e30613;}.b95b7e44-0bd2-462f-9c2b-d7706d92ed57{fill:#adce6d;}.e8301878-d258-4d80-be76-1154e5aed2d2{fill:#fd0;}.e2ac101b-0a90-477c-ab86-87cbed57c0f7{fill:#00929e;}.e4cb6e7f-6c61-4c46-925a-6678a360a818{fill:#50bcbd;}.b0b7d355-f7d7-42bc-aada-dff09492d7c8{stroke:#1d1d1b;}.b0b7d355-f7d7-42bc-aada-dff09492d7c8,.fc12cbda-d578-4251-ad07-165dd82f7d30{stroke-miterlimit:3.86;stroke-width:0.11px;}.fc12cbda-d578-4251-ad07-165dd82f7d30{stroke:#e30613;}</style></defs><path class="addb196e-005e-4e33-bc05-51339b7cb085" d="M47.51,202.52c-1,2.94-3.6,5.37-8.45,3.69-4-1.41-5.52-4.44-4.11-8.5l.46-1.33,2.88,1-.32.91c-.87,2.51-.82,4.53,2,5.51,2.64.92,4-.31,4.82-2.7l5.5-15.82,2.88,1ZM67,212.5l-2.53-.45.47-2.59a6,6,0,0,1-5.9,2c-4.3-.77-5.18-3.48-4.55-7l1.94-10.74,2.68.49-2,11.05a3.12,3.12,0,0,0,2.72,3.88c3.26.59,5.23-1.31,5.76-4.25l1.66-9.22,2.69.49Zm14.48-1.32c-3.6-.06-4.63-3.42-4.58-6.4,0-3.18,1.51-6,5-5.95s4.66,3.09,4.61,6C86.5,208,85.1,211.24,81.51,211.18Zm7.87-14.25-2.57,0,0,2.37a5.53,5.53,0,0,0-4.93-2.84c-5.75-.09-7.75,4.72-7.81,8.63-.08,4.53,2.32,8.45,7.27,8.53a5.51,5.51,0,0,0,5.21-2.93l0,1.09c-.06,3.72-1.52,6.27-5.08,6.21-1.8,0-4.16-.78-4.26-2.77l-2.72,0c.1,3.62,3.67,4.94,6.78,5,5.23.08,7.75-2.63,7.84-8Zm8,6a4.77,4.77,0,0,1,9.44-1.34Zm10,3.24a4,4,0,0,1-3.8,3.81c-3.59.52-5.57-1.79-5.89-4.67l12.3-1.75c-.41-4-3-9.17-8.78-8.34-4.48.64-7.2,4.72-6.5,9.64.88,5,3.87,8.27,9.11,7.52,3.69-.53,6-2.87,6.23-6.59Zm5-12.55,2.45-.76.78,2.52a6,6,0,0,1,4.32-4.5c4.17-1.29,6.2.7,7.25,4.11l3.23,10.42-2.61.8-3.32-10.72a3.13,3.13,0,0,0-4.21-2.19c-3.16,1-4,3.56-3.15,6.41l2.77,8.95-2.6.81Zm23.46.71c-1.46-2.89-1.78-6.29,1.55-8s6,.35,7.5,3.27,1.56,6.22-1.71,7.87S137.34,197.11,135.94,194.33Zm4.82-19-2.44,1.22,3.84,7.63a6.52,6.52,0,0,0-6,.12c-4.53,2.28-5,6.93-2.88,11.11s6.19,6.65,10.75,4.36c2-1,3.56-2.69,3.54-4.73l1.07,2,2.43-1.23Zm7.11,2.8,2.12-1.45,2,2.88c-.37-3,.39-5.1,2.88-6.69l1.64,2.38c-3.63,2.49-3.53,5.46-1.15,8.93l4.17,6.08-2.24,1.55Zm16.3-1.55c-2.7-3-2.47-6.23-.34-8.13s5.35-1.77,8,1.25,2.45,6.2.32,8.11S166.84,179.62,164.17,176.63ZM162,178.55c3.23,3.62,7.85,4.61,11.78,1.1s3.46-8.21.24-11.83-7.88-4.62-11.8-1.12S158.76,174.92,162,178.55Zm11.69-23,2.17-2.5,1.82,1.57-2.16,2.51,7.79,6.73c1,.82,1.35.7,2.46-.59l.82-.95,1.82,1.58-1.37,1.58c-1.84,2.13-3,2.6-5.32.61l-8-6.9-1.84,2.13-1.83-1.57,1.85-2.13-3.76-3.26,1.78-2.06Zm-.41-9.31,1.51-2.27,11.28,7.56-1.81-10.33,2-3,1.35,8.82,12.69,0-1.92,2.87-10.36-.1.54,3.45,5.23,3.5L192.32,159ZM187.82,135l1.15-2.29,3.13,1.57c-1.77-2.43-2.12-4.65-.71-7.25l2.58,1.3c-2,3.93-.46,6.48,3.3,8.37l6.6,3.31-1.23,2.44Zm12-9.74a4.72,4.72,0,0,1-2.82-6,4.77,4.77,0,0,1,6-2.94Zm7.53-7.37a4,4,0,0,1,1.61,5.14c-1.22,3.41-4.18,4.09-6.87,3l4.16-11.7c-3.73-1.5-9.5-1.64-11.47,3.89-1.51,4.26.84,8.57,5.52,10.24,4.84,1.55,9.12.41,10.89-4.58,1.25-3.5.26-6.65-2.94-8.57Zm10-20.8-.47,2.52-2.59-.47a5.93,5.93,0,0,1,2,5.91c-.79,4.29-3.5,5.16-7,4.51l-10.73-2,.5-2.68,11,2A3.12,3.12,0,0,0,214,104.2c.6-3.25-1.28-5.23-4.22-5.77l-9.21-1.7.49-2.68ZM216,90.77,204.19,80.36l-.31,9.37-2.4-.08.43-12.9,1.86.07,12,10.54.36-10.58,2.4.08-.46,14Z" transform="translate(-34.38 -32.69)"/><polygon class="e0c45992-9e5d-4812-b21c-6e41d1f6a741" points="164.33 7.46 171.79 7.46 171.79 0 179.24 0 179.24 7.46 186.7 7.46 186.7 14.91 179.24 14.91 179.24 22.37 171.79 22.37 171.79 14.91 164.33 14.91 164.33 7.46"/><path class="b8881740-a956-43c7-bb4d-af52d92d8313" d="M36.62,45.69h2c1.3,0,2.54-.8,2.54-3.06,0-2.05-.71-3.37-2.94-3.37h-1.6Zm-2.24-8.31h4.4c2.64,0,4.62,1.65,4.62,5,0,2.95-1.51,5.15-4.62,5.15h-4.4Z" transform="translate(-34.38 -32.69)"/><path class="b8881740-a956-43c7-bb4d-af52d92d8313" d="M49.6,43.09c-.19-1-.63-1.57-1.61-1.57a1.6,1.6,0,0,0-1.69,1.57Zm-3.3,1.28c.06,1.29.69,1.87,1.81,1.87a1.67,1.67,0,0,0,1.6-1H51.5A3.32,3.32,0,0,1,48,47.77a3.6,3.6,0,0,1-3.76-3.88A3.7,3.7,0,0,1,48,40c2.52,0,3.73,2.11,3.59,4.38Z" transform="translate(-34.38 -32.69)"/><path class="b8881740-a956-43c7-bb4d-af52d92d8313" d="M59.75,47.57H57.82v-1h0a2.64,2.64,0,0,1-2.26,1.23c-2.15,0-2.69-1.21-2.69-3V40.19h2v4.17c0,1.21.36,1.81,1.3,1.81,1.1,0,1.57-.61,1.57-2.11V40.19h2Z" transform="translate(-34.38 -32.69)"/><path class="b8881740-a956-43c7-bb4d-af52d92d8313" d="M63.94,40.19h1.49v1.36H63.94V45.2c0,.69.18.86.86.86a3.28,3.28,0,0,0,.63-.06v1.58a7.4,7.4,0,0,1-1.19.07c-1.24,0-2.32-.28-2.32-1.75V41.55H60.69V40.19h1.23V38h2Z" transform="translate(-34.38 -32.69)"/><path class="b8881740-a956-43c7-bb4d-af52d92d8313" d="M68.1,45.17c0,.89.75,1.24,1.55,1.24.59,0,1.33-.23,1.33-.94s-.84-.83-2.3-1.14c-1.17-.26-2.34-.67-2.34-2C66.34,40.48,68,40,69.55,40s3.1.54,3.26,2.36H70.88c-.06-.79-.65-1-1.38-1-.46,0-1.13.08-1.13.68s1.14.83,2.3,1.1S73,43.83,73,45.2c0,1.94-1.69,2.57-3.37,2.57s-3.38-.64-3.47-2.6Z" transform="translate(-34.38 -32.69)"/><path class="b8881740-a956-43c7-bb4d-af52d92d8313" d="M79.12,42.79a1.38,1.38,0,0,0-1.5-1.27c-1.3,0-1.73,1.31-1.73,2.4s.42,2.32,1.68,2.32a1.56,1.56,0,0,0,1.62-1.5h2a3.29,3.29,0,0,1-3.55,3A3.57,3.57,0,0,1,73.87,44c0-2.3,1.37-4,3.76-4,1.74,0,3.34.91,3.47,2.8Z" transform="translate(-34.38 -32.69)"/><path class="b8881740-a956-43c7-bb4d-af52d92d8313" d="M82.29,37.38h2v3.84h0A2.59,2.59,0,0,1,86.51,40c2.16,0,2.7,1.21,2.7,3v4.54h-2V43.4c0-1.21-.35-1.81-1.3-1.81s-1.57.61-1.57,2.11v3.87h-2Z" transform="translate(-34.38 -32.69)"/><path class="b8881740-a956-43c7-bb4d-af52d92d8313" d="M95.62,43.09c-.19-1-.63-1.57-1.61-1.57a1.6,1.6,0,0,0-1.69,1.57Zm-3.3,1.28c.06,1.29.69,1.87,1.81,1.87a1.67,1.67,0,0,0,1.6-1h1.79a3.32,3.32,0,0,1-3.46,2.48,3.61,3.61,0,0,1-3.77-3.88A3.71,3.71,0,0,1,94.06,40c2.52,0,3.73,2.11,3.59,4.38Z" transform="translate(-34.38 -32.69)"/><path class="b8881740-a956-43c7-bb4d-af52d92d8313" d="M100.41,45.17c0,.89.76,1.24,1.56,1.24.59,0,1.33-.23,1.33-.94s-.84-.83-2.3-1.14c-1.17-.26-2.34-.67-2.34-2,0-1.88,1.63-2.37,3.21-2.37s3.1.54,3.25,2.36H103.2c-.06-.79-.66-1-1.39-1-.46,0-1.12.08-1.12.68s1.14.83,2.29,1.1,2.34.7,2.34,2.07c0,1.94-1.68,2.57-3.36,2.57s-3.39-.64-3.47-2.6Z" transform="translate(-34.38 -32.69)"/><path class="b8881740-a956-43c7-bb4d-af52d92d8313" d="M112.93,42h2.46c1,0,1.54-.43,1.54-1.46s-.54-1.41-1.54-1.41h-2.46Zm-2.24-4.61h5.5a2.8,2.8,0,0,1,3,2.81,2.51,2.51,0,0,1-1.61,2.56v0c1.1.28,1.41,1.35,1.48,2.38a5.66,5.66,0,0,0,.43,2.41h-2.24a11.72,11.72,0,0,1-.36-2.44c-.16-1.07-.57-1.54-1.69-1.54h-2.25v4h-2.24Z" transform="translate(-34.38 -32.69)"/><path class="b8881740-a956-43c7-bb4d-af52d92d8313" d="M124.18,46.24c1.39,0,1.8-1.18,1.8-2.35s-.41-2.37-1.8-2.37-1.78,1.18-1.78,2.37S122.81,46.24,124.18,46.24Zm0-6.25a3.63,3.63,0,0,1,3.83,3.9,3.82,3.82,0,1,1-7.64,0A3.62,3.62,0,0,1,124.18,40Z" transform="translate(-34.38 -32.69)"/><path class="b8881740-a956-43c7-bb4d-af52d92d8313" d="M131.86,40.19h1.49v1.36h-1.49V45.2c0,.69.17.86.86.86a3.44,3.44,0,0,0,.63-.06v1.58a7.54,7.54,0,0,1-1.19.07c-1.24,0-2.33-.28-2.33-1.75V41.55h-1.22V40.19h1.22V38h2Z" transform="translate(-34.38 -32.69)"/><path class="b8881740-a956-43c7-bb4d-af52d92d8313" d="M139.33,43.09c-.19-1-.63-1.57-1.62-1.57A1.6,1.6,0,0,0,136,43.09ZM136,44.37c.06,1.29.68,1.87,1.81,1.87a1.67,1.67,0,0,0,1.6-1h1.79a3.33,3.33,0,0,1-3.46,2.48A3.6,3.6,0,0,1,134,43.89a3.71,3.71,0,0,1,3.77-3.9c2.51,0,3.73,2.11,3.58,4.38Z" transform="translate(-34.38 -32.69)"/><path class="b8881740-a956-43c7-bb4d-af52d92d8313" d="M144.12,45.17c0,.89.76,1.24,1.56,1.24.58,0,1.33-.23,1.33-.94s-.85-.83-2.3-1.14c-1.18-.26-2.35-.67-2.35-2,0-1.88,1.63-2.37,3.22-2.37s3.09.54,3.25,2.36h-1.92c-.06-.79-.66-1-1.39-1-.46,0-1.13.08-1.13.68s1.14.83,2.3,1.1,2.34.7,2.34,2.07c0,1.94-1.68,2.57-3.37,2.57s-3.38-.64-3.47-2.6Z" transform="translate(-34.38 -32.69)"/><polygon class="b8881740-a956-43c7-bb4d-af52d92d8313" points="120.02 4.69 122.26 4.69 122.26 8.92 126.24 4.69 129.04 4.69 125.06 8.72 129.43 14.88 126.61 14.88 123.54 10.3 122.26 11.6 122.26 14.88 120.02 14.88 120.02 4.69"/><path class="b8881740-a956-43c7-bb4d-af52d92d8313" d="M164.49,40.19h1.93v1.37h0A2.6,2.6,0,0,1,168.8,40a1.56,1.56,0,0,1,.44.07V42a3.11,3.11,0,0,0-.72-.08c-1.49,0-2,1.08-2,2.38v3.32h-2Z" transform="translate(-34.38 -32.69)"/><path class="b8881740-a956-43c7-bb4d-af52d92d8313" d="M174.76,43.09c-.19-1-.63-1.57-1.62-1.57a1.6,1.6,0,0,0-1.68,1.57Zm-3.3,1.28c.06,1.29.68,1.87,1.81,1.87a1.67,1.67,0,0,0,1.6-1h1.79a3.32,3.32,0,0,1-3.46,2.48,3.6,3.6,0,0,1-3.77-3.88A3.71,3.71,0,0,1,173.2,40c2.51,0,3.73,2.11,3.58,4.38Z" transform="translate(-34.38 -32.69)"/><path class="b8881740-a956-43c7-bb4d-af52d92d8313" d="M184.78,47.57h-1.93v-1h0a2.64,2.64,0,0,1-2.26,1.23c-2.15,0-2.7-1.21-2.7-3V40.19h2v4.17c0,1.21.36,1.81,1.3,1.81,1.1,0,1.57-.61,1.57-2.11V40.19h2Z" transform="translate(-34.38 -32.69)"/><polygon class="b8881740-a956-43c7-bb4d-af52d92d8313" points="151.51 13.36 155.35 9.03 151.79 9.03 151.79 7.5 158.01 7.5 158.01 9.03 154.18 13.36 158.29 13.36 158.29 14.88 151.51 14.88 151.51 13.36"/><path class="b95b7e44-0bd2-462f-9c2b-d7706d92ed57" d="M61.15,64.39c-.4,5.73-.74,8.85,0,14.46a190.87,190.87,0,0,0,8.69,27.35C73,112,74.2,115.8,78.4,121.38c14,22,28.69,34,54,37.59a1,1,0,0,1-.28,2c-26.3-3.7-42.64-14.37-57.16-37.22C70.61,118,69.32,114,66,108c-4.18-10.54-4.8-17.75-7.55-28.64a67.33,67.33,0,0,1-.27-15.16,1.49,1.49,0,0,1,3,.2Z" transform="translate(-34.38 -32.69)"/><path class="e8301878-d258-4d80-be76-1154e5aed2d2" d="M85,59.33c3.93,12.59,7.89,19.11,14.82,30.37a62.67,62.67,0,0,0,9.75,12.94l5,4.4c4.14,2.64,6.21,4.41,10.77,6.18a2,2,0,0,1-1.41,3.64c-4.85-1.88-7.46-3.68-11.86-6.48l-5.41-4.71c-4.63-4.8-6.37-8.44-9.84-14.15-7-11.44-8.52-19.19-12.52-32a.35.35,0,0,1,.67-.21Z" transform="translate(-34.38 -32.69)"/><path class="b95b7e44-0bd2-462f-9c2b-d7706d92ed57" d="M87,56.77l.89,7.53c1.14,3.27,2.78,4.62,3.92,7.88,3.62,7.93,5.24,12.68,9.64,20a47.89,47.89,0,0,0,7.75,13.76c6.59,8.55,11.28,13.41,21.46,17.63A75,75,0,0,0,145,128c1.54.35.71,2.74-.83,2.39a77,77,0,0,1-14.64-4.55c-10.59-4.4-15.78-9.09-22.63-18-3.84-5-6.09-7.84-8.44-13.91C94,86.52,92.38,81.81,88.72,73.76c-1.14-3.25-1.21-5.6-2.34-8.85l-2.15-7.22c-.52-1.75,2.59-2.77,2.81-.92Z" transform="translate(-34.38 -32.69)"/><path class="b95b7e44-0bd2-462f-9c2b-d7706d92ed57" d="M94.42,82.22c7.81,10.62,13.69,15.5,23.9,23.89a63.27,63.27,0,0,0,13.43,9.07l6.19,2.52c4.78,1.14,7.31,2.14,12.19,2.33a2,2,0,1,1-.14,3.9c-5.2-.2-8.25-1.05-13.33-2.27L130,119c-5.94-3-8.77-5.91-13.91-10.17-10.39-8.53-14.31-15.37-22.25-26.16a.35.35,0,0,1,.56-.42Z" transform="translate(-34.38 -32.69)"/><path class="e2ac101b-0a90-477c-ab86-87cbed57c0f7" d="M38.42,112.19a53.22,53.22,0,1,1,52.29,54.15,53.21,53.21,0,0,1-52.29-54.15Z" transform="translate(-34.38 -32.69)"/><path class="e4cb6e7f-6c61-4c46-925a-6678a360a818" d="M128.92,87.59l-5.19-2c-10.85-3.27-18-1-29,1.21-8.53,1.65-13.21,4.06-20.14,9.39a115,115,0,0,0-19.19,24.1c-1.79,3-4.34-2.88-2.55-5.87,5.74-9.54,10-14.71,18.06-22.5,7.62-5.85,13.72-7,23.1-8.81,11.45-2.28,18.8-1.7,30,1.68l5.34,1.57a.63.63,0,0,1-.4,1.19Z" transform="translate(-34.38 -32.69)"/><path class="e4cb6e7f-6c61-4c46-925a-6678a360a818" d="M129.69,80.8c-3,4.36-3.32,7.9-6.74,12-5.72,6-8.67,9.87-14.65,15.67-13.12,11-20,18-34.88,26.21-4.8,2.67-8,3.51-12.93,5.88a.14.14,0,0,1-.12-.25c5-2.36,7.49-4.37,12.27-7,14.71-8.19,20-16.79,33.05-27.71,5.93-5.75,8.67-9.38,14.35-15.36,3.33-4,5.68-5.88,8.62-10.14a.63.63,0,0,1,1,.72Z" transform="translate(-34.38 -32.69)"/><path class="e4cb6e7f-6c61-4c46-925a-6678a360a818" d="M130.05,79.5c.83,9.43,2.94,14.68,1.08,24-.82,3.53-1.39,5.75-2.14,9.28-6.8,18-14.74,27.86-30.91,38.71a.14.14,0,0,1-.16-.23c15.84-10.62,21.22-21.81,27.87-39.42.76-3.55,1.24-5.49,2.07-9,1.82-9.14,2.72-14.14,1.91-23.32a.14.14,0,0,1,.28,0Z" transform="translate(-34.38 -32.69)"/><path class="e4cb6e7f-6c61-4c46-925a-6678a360a818" d="M96.44,61.59c4.8,12.28,9.21,18.51,16.91,29.26A62.37,62.37,0,0,0,124,103.08l5.32,4c4.32,2.34,6.51,4,11.18,5.41a2,2,0,0,1-1.15,3.73c-5-1.54-7.7-3.15-12.29-5.64l-5.71-4.31c-5-4.47-6.95-8-10.81-13.44-7.82-10.92-9.84-18.54-14.72-31a.35.35,0,1,1,.65-.26Z" transform="translate(-34.38 -32.69)"/><path class="e4cb6e7f-6c61-4c46-925a-6678a360a818" d="M52.51,62c.3,5.73.34,8.87,1.72,14.35a190.92,190.92,0,0,0,12,26.09c3.91,5.4,5.55,9,10.4,14,16.55,20.11,32.62,30.28,58.16,30.73,1.36,0,.47,1.69-.88,1.67-26.55-.47-43.22-8.7-60.42-29.61-5-5.19-6.77-9-10.81-14.57-5.43-10-6.93-17-11-27.51a67.18,67.18,0,0,1-2.12-15,1.49,1.49,0,0,1,3-.15Z" transform="translate(-34.38 -32.69)"/><path class="e8301878-d258-4d80-be76-1154e5aed2d2" d="M140,79.81c2.85,2.41,6.31,9.76,7.67,15.93,2.75,13.85,2.31,22.13-2.33,35.28-13.49,38.37-65.12,52.44-99.13,29a.27.27,0,1,1,.3-.44c32.23,22.21,80.17,5.73,92.95-30.62,4.2-11.93,4.59-19.37,2.1-31.93-1.16-5.29-2.54-7.33-5-13-1.81-2.37,1.63-6.62,3.44-4.25Z" transform="translate(-34.38 -32.69)"/><path class="e4cb6e7f-6c61-4c46-925a-6678a360a818" d="M79.92,56.16,79.81,59c5.94,26,11,42.31,31.19,60.25,10.84,9,17.4,15.12,31.23,17.46a2.24,2.24,0,1,1-.74,4.41c-14.85-2.51-22.74-7.72-34.37-17.34-21-18.61-22.34-37.6-28.51-64.53l-1.1-2.63c-.62-1.5,2.47-2.06,2.41-.44Z" transform="translate(-34.38 -32.69)"/><path class="b95b7e44-0bd2-462f-9c2b-d7706d92ed57" d="M40.93,103.17l3.13-1.86C57.88,74.84,85.6,63.25,114,71.82c3.28,1.06,4.41,3.94,7.54,5.43.68.32.55,1.07-.19,1.16-3.23.36-5.1.94-8.31.46a70.12,70.12,0,0,0-11.74.61c-1.21.16-1.16-2.24,0-1.88l4.25,1.29c4,.75,6.23,1.19,10.29,1.81,3.59.89,6.1,1.45,9.12,3.45,3.91,3.19,7.26,4.26,10.31,8.29,2,5.26,2.3,9.09,2.9,14.75a1.7,1.7,0,1,1-3.37.37c-.56-5.24-2.34-7.64-4.22-12.51-2.84-3.75-3.09-6.4-6.74-9.37-2.9-1.92-4.66-3.59-8.11-4.45-4.06-.62-6.21-1.06-10.27-1.81l-4.42.06a1,1,0,0,1,0-1.89c4.69-.6,7.5-1.22,12.18-1.14,3,.45,4.92,1.09,8,.75.75-.09.48,1.48-.2,1.15-3-1.41-5.52-.35-8.63-1.36-27-8.14-54.65-.62-67.8,24.55,0,0-6.43,3.3-3.62,1.63Z" transform="translate(-34.38 -32.69)"/><path class="e4cb6e7f-6c61-4c46-925a-6678a360a818" d="M40.45,85c0,1.91.61,2.84.61,4.76.4,3.36.31,5.06.85,8.42.94,3.78,2,5.65,3,9.42,1.08,2.85,1.51,4.62,2.59,7.47,11.35,25.11,26.37,41.09,53.87,45.63a.27.27,0,1,1-.09.53c-28.39-4.68-46.19-18.52-57.91-44.44-1.09-2.85-1.75-4.88-2.84-7.73-1.09-3.83-1.42-6.29-2.38-10.11-.55-3.43-.91-5.52-1.33-8.94,0-1.92.61-3.1.61-5a1.49,1.49,0,1,1,3,0Z" transform="translate(-34.38 -32.69)"/><path class="e0c45992-9e5d-4812-b21c-6e41d1f6a741" d="M126.63,66.09c25.22,5.48,38.63,29.65,34.8,54.87-2.7,17.73-9.62,29-23.45,40.89a52.42,52.42,0,0,1-10.47,6.92,111.91,111.91,0,0,1-17.63,7.45,108.47,108.47,0,0,1-18,4.41c-10.87,2-18.32,2.05-25.3,2.62a.35.35,0,1,1-.09-.69c13.26-1.77,18.47-2.92,28.94-5.89,13.61-3.85,23.56-9.58,35.59-18.78,11.56-11.56,18.19-22.89,22-38.58,5.46-22.57-3.61-47.54-26.57-52.54a.35.35,0,1,1,.15-.68Z" transform="translate(-34.38 -32.69)"/><path class="b0b7d355-f7d7-42bc-aada-dff09492d7c8" d="M54.29,92.52l-.78-.08L53.35,94l-.83.31-.22-1.6-.8.11-.17,1.56c-.29-.07-.51.15-.8.12-.54-.06-.46-.74-.87-1.08,0,.29-.25.46-.28.76s.29.52.31.82c-.29-.08-.51.15-.81.11s-.08-.6-.31-.82l-.79.12c.46,1.23.27,2.1.83,3.25.37.77,1.28,1,1.19,1.9a3.32,3.32,0,0,1-3.4,3.2,13.75,13.75,0,0,1-11-6.7,7.93,7.93,0,0,0-.85,2.48c-.39,3.72,1.16,6.35,3.81,8.9,1.83,1.77,4.46,2.59,4.19,5.18-.47,4.49-4,6.19-4.48,10.69a9.32,9.32,0,0,0,2.72,7.89c.38-2.14,1.57-3.14,2.89-4.83a27,27,0,0,0,4.46-8.62c2.19,1.17,3,3.33,2.74,5.82-.19,1.81-1.07,2.7-1.26,4.51-.27,2.59.79,4.23,2.09,6.44.78-4.61,4.59-6.18,5.09-10.83.46-4.39-3.06-6.64-2.59-11,.07-.78.26-1.16.39-1.94,5.79-.13,10.79-2.57,12.32-8.18l.28-.76c-3.57,2.88-6.84,3-11.33,2.56-1.66-.18-3.92-.31-3.75-2,.13-1.22,1.78-.94,2.75-1.68a3.17,3.17,0,0,0,1.06-2.56,6.56,6.56,0,0,0-1.32-4.38l-.27-1.22Z" transform="translate(-34.38 -32.69)"/><path class="fc12cbda-d578-4251-ad07-165dd82f7d30" d="M86.2,115.43c3.41-1.36,5.16-4.08,5.45-7.78-3.79-1.26-6.23-1.94-9.34-4.28a6.72,6.72,0,0,0,2.34,4.28c-.78,0-1.17.39-2,.39s-1.26-.58-1.94-.78l-1.17-1.55a7.49,7.49,0,0,0,2.72,3.89,16.33,16.33,0,0,1-3.11.39,14.61,14.61,0,0,0,3.11,2.33V115c-1.26.2-1.84.78-3.11.78-4.48,0-6.32-3.89-9-7.39-.48,1.07-2,3.72-2,5,0,6.13,7.5,6.2,7.89,12.33L71.81,148.5c5.93-5.93,11-9.34,11.67-17.51,3.11,1,4.08,3.7,5.45,6.62a23.21,23.21,0,0,0,8.17,10.11V132.16c-1-4.08-3.49-4.3-6.12-7.51,6.42-2.63,13.12-6.88,14.28-13.89-7.58,1.17-15.27,11.29-19.06,4.67Z" transform="translate(-34.38 -32.69)"/><path class="e8301878-d258-4d80-be76-1154e5aed2d2" d="M116,103.87c1.12,0,1.4-1.21,2.24-1.87a28.77,28.77,0,0,0,2.8-2.62c3.51-3.5,4.68-7,4.68-12,2.47,1.21,3,3.7,3,6.45,0,3.83-.66,6.4-3.18,9.25s-5,4.21-5,7.85c0,3.84,2.43,5.71,2.43,9.54,0,.37-.56.37-.56.74,0,3.14.8,4.86,1.68,7.85,1.5,5,2.06,8.19,5.24,12.34-2.62,1.41-4.49,1.5-7.48,1.5-1.31,0-1.77-1.36-2.43-2.43a9.48,9.48,0,0,1-1.68-5.8v-4.86L116,123.5a9.15,9.15,0,0,0-1.31,1.12v3.55c-.75,5,0,8.18-2.43,12.53-1.26,2.33-3.6,2.38-6.17,3l-.19-.75,3.74-27.48a2.86,2.86,0,0,0-1.59-.93v4.2c0,4.72-1,7.9-4.39,11.31l-.65-.94v-8.59c-.29-4.35-.75-7.48,1.77-11,2.25-3.13,6.54-3.46,6.54-7.29,0-.75-.93-.7-1.49-1.12-1.26-1-2.24-1.92-2.24-3.56,0-3.83,5.09-3.22,8.59-4.67a5,5,0,0,1-.93,1.5c.61-.24,1.07-.38,1.68-.56h1.68s-4,.85-3,1.84,1.3,3,1.3,4.33-2.24,1-2.24,2.24c0,.56.14.93.19,1.49a8.74,8.74,0,0,0,1.12.19Z" transform="translate(-34.38 -32.69)"/></svg>